<svg width="16" height="16" viewBox="0 0 16 16" fill="none" xmlns="http://www.w3.org/2000/svg">
<path d="M8.0003 12.6666V7.99997M8.19464 12.7231L12.847 14.2805C13.2116 14.4026 13.3939 14.4636 13.5063 14.4198C13.6039 14.3818 13.678 14.3001 13.7062 14.1992C13.7388 14.083 13.6602 13.9076 13.503 13.5567L8.51067 2.41488C8.35693 2.07175 8.28005 1.90018 8.17296 1.84702C8.07993 1.80083 7.97068 1.80066 7.87749 1.84655C7.77023 1.89936 7.69281 2.07068 7.53796 2.41332L2.50162 13.5573C2.34316 13.908 2.26393 14.0833 2.29615 14.1996C2.32413 14.3006 2.39798 14.3826 2.49552 14.4209C2.60785 14.465 2.79045 14.4044 3.15564 14.2832L7.85732 12.7226C7.91993 12.7019 7.95123 12.6915 7.98324 12.6874C8.01165 12.6837 8.04041 12.6838 8.06881 12.6875C8.10081 12.6917 8.13209 12.7021 8.19464 12.7231Z" stroke="white" stroke-width="1.33333" stroke-linecap="round" stroke-linejoin="round"/>
</svg>
